# xmcd
#
# Track frame offsets:
# 150
# 20203
# 35741
# 56203
# 75891
# 86466
# 105441
# 124041
# 140241
# 159816
#
# Disc length: 2609 seconds
#
# Revision: 0
# Processed by: cddbd v1.5.2PL0 Copyright (c) Steve Scherf et al.
# Submitted via: Audion 3.0.2 (http://www.panic.com/audion/)
#
DISCID=7b0a2f0a
DTITLE=MOTION TRIO - Pictures from the street
DYEAR=1900
DGENRE=
TTITLE0=Train to Heaven
TTITLE1=Café de Paris
TTITLE2=Balkan Dance
TTITLE3=Little Story
TTITLE4=Tango
TTITLE5=It's OK
TTITLE6=Scotsman
TTITLE7=Pageant
TTITLE8=Asfalt tango
TTITLE9=Aide Jano
EXTD=
EXTT0=
EXTT1=
EXTT2=
EXTT3=
EXTT4=
EXTT5=
EXTT6=
EXTT7=
EXTT8=
EXTT9=
PLAYORDER=
